<?xml version="1.0" standalone="no"?>
<!DOCTYPE svg PUBLIC "-//W3C//DTD SVG 20010904//EN"
 "http://www.w3.org/TR/2001/REC-SVG-20010904/DTD/svg10.dtd">
<svg version="1.0" xmlns="http://www.w3.org/2000/svg"
 width="512.000000pt" height="512.000000pt" viewBox="0 0 512.000000 512.000000"
 preserveAspectRatio="xMidYMid meet">
<metadata>
Created by potrace 1.14, written by Peter Selinger 2001-2017
</metadata>
<g transform="translate(0.000000,512.000000) scale(0.100000,-0.100000)"
fill="#000000" stroke="none">
<path d="M980 5097 c-193 -57 -345 -216 -394 -412 -14 -53 -16 -315 -16 -2117
0 -1996 1 -2112 29 -2183 12 -33 55 -119 66 -134 77 -103 176 -179 288 -220
l72 -26 1508 -3 c1320 -2 1515 -1 1573 13 187 43 339 177 413 364 l26 66 0
2110 0 2110 -23 65 c-47 136 -161 267 -285 328 -131 65 -42 62 -1687 61
l-1495 0 -75 -22z"/>
</g>
</svg>
